[Header]
FileType HTR
DataType HTRS
FileVersion 1
NumSegments 64
NumFrames 4
DataFrameRate 24
EulerRotationOrder ZYX
CalibrationUnits mm
RotationUnits Degrees
GlobalAxisofGravity Y
BoneLengthAxis Y
ScaleFactor 1.0
[SegmentNames&Hierarchy]
Hips	GLOBAL
Spine	Hips
Spine1	Spine
Spine2	Spine1
Neck	Spine2
Head	Neck
LeftEye	Head
RightEye	Head
LeftShoulder	Spine2
LeftArm	LeftShoulder
LeftForeArm	LeftArm
LeftHand	LeftForeArm
LeftHandThumb1	LeftHand
LeftHandThumb2	LeftHandThumb1
LeftHandThumb3	LeftHandThumb2
LeftHandThumb4	LeftHandThumb3
LeftHandIndex1	LeftHand
LeftHandIndex2	LeftHandIndex1
LeftHandIndex3	LeftHandIndex2
LeftHandIndex4	LeftHandIndex3
LeftHandMiddle1	LeftHand
LeftHandMiddle2	LeftHandMiddle1
LeftHandMiddle3	LeftHandMiddle2
LeftHandMiddle4	LeftHandMiddle3
LeftHandRing1	LeftHand
LeftHandRing2	LeftHandRing1
LeftHandRing3	LeftHandRing2
LeftHandRing4	LeftHandRing3
LeftHandPinky1	LeftHand
LeftHandPinky2	LeftHandPinky1
LeftHandPinky3	LeftHandPinky2
LeftHandPinky4	LeftHandPinky3
RightShoulder	Spine2
RightArm	RightShoulder
RightForeArm	RightArm
RightHand	RightForeArm
RightHandPinky1	RightHand
RightHandPinky2	RightHandPinky1
RightHandPinky3	RightHandPinky2
RightHandPinky4	RightHandPinky3
RightHandRing1	RightHand
RightHandRing2	RightHandRing1
RightHandRing3	RightHandRing2
RightHandRing4	RightHandRing3
RightHandMiddle1	RightHand
RightHandMiddle2	RightHandMiddle1
RightHandMiddle3	RightHandMiddle2
RightHandMiddle4	RightHandMiddle3
RightHandIndex1	RightHand
RightHandIndex2	RightHandIndex1
RightHandIndex3	RightHandIndex2
RightHandIndex4	RightHandIndex3
RightHandThumb1	RightHand
RightHandThumb2	RightHandThumb1
RightHandThumb3	RightHandThumb2
RightHandThumb4	RightHandThumb3
LeftUpLeg	Hips
LeftLeg	LeftUpLeg
LeftFoot	LeftLeg
LeftToeBase	LeftFoot
RightUpLeg	Hips
RightLeg	RightUpLeg
RightFoot	RightLeg
RightToeBase	RightFoot
[BasePosition]
Hips	0	0	0	0	0	0	1
Spine	0	0	0	0	0	0	1
Spine1	0	0	0	0	0	0	1
Spine2	0	0	0	0	0	0	1
Neck	0	0	0	0	0	0	1
Head	0	0	0	0	0	0	1
LeftEye	0	0	0	0	0	0	1
RightEye	0	0	0	0	0	0	1
LeftShoulder	0	0	0	0	0	0	1
LeftArm	0	0	0	0	0	0	1
LeftForeArm	0	0	0	0	0	0	1
LeftHand	0	0	0	0	0	0	1
LeftHandThumb1	0	0	0	0	0	0	1
LeftHandThumb2	0	0	0	0	0	0	1
LeftHandThumb3	0	0	0	0	0	0	1
LeftHandThumb4	0	0	0	0	0	0	1
LeftHandIndex1	0	0	0	0	0	0	1
LeftHandIndex2	0	0	0	0	0	0	1
LeftHandIndex3	0	0	0	0	0	0	1
LeftHandIndex4	0	0	0	0	0	0	1
LeftHandMiddle1	0	0	0	0	0	0	1
LeftHandMiddle2	0	0	0	0	0	0	1
LeftHandMiddle3	0	0	0	0	0	0	1
LeftHandMiddle4	0	0	0	0	0	0	1
LeftHandRing1	0	0	0	0	0	0	1
LeftHandRing2	0	0	0	0	0	0	1
LeftHandRing3	0	0	0	0	0	0	1
LeftHandRing4	0	0	0	0	0	0	1
LeftHandPinky1	0	0	0	0	0	0	1
LeftHandPinky2	0	0	0	0	0	0	1
LeftHandPinky3	0	0	0	0	0	0	1
LeftHandPinky4	0	0	0	0	0	0	1
RightShoulder	0	0	0	0	0	0	1
RightArm	0	0	0	0	0	0	1
RightForeArm	0	0	0	0	0	0	1
RightHand	0	0	0	0	0	0	1
RightHandPinky1	0	0	0	0	0	0	1
RightHandPinky2	0	0	0	0	0	0	1
RightHandPinky3	0	0	0	0	0	0	1
RightHandPinky4	0	0	0	0	0	0	1
RightHandRing1	0	0	0	0	0	0	1
RightHandRing2	0	0	0	0	0	0	1
RightHandRing3	0	0	0	0	0	0	1
RightHandRing4	0	0	0	0	0	0	1
RightHandMiddle1	0	0	0	0	0	0	1
RightHandMiddle2	0	0	0	0	0	0	1
RightHandMiddle3	0	0	0	0	0	0	1
RightHandMiddle4	0	0	0	0	0	0	1
RightHandIndex1	0	0	0	0	0	0	1
RightHandIndex2	0	0	0	0	0	0	1
RightHandIndex3	0	0	0	0	0	0	1
RightHandIndex4	0	0	0	0	0	0	1
RightHandThumb1	0	0	0	0	0	0	1
RightHandThumb2	0	0	0	0	0	0	1
RightHandThumb3	0	0	0	0	0	0	1
RightHandThumb4	0	0	0	0	0	0	1
LeftUpLeg	0	0	0	0	0	0	1
LeftLeg	0	0	0	0	0	0	1
LeftFoot	0	0	0	0	0	0	1
LeftToeBase	0	0	0	0	0	0	1
RightUpLeg	0	0	0	0	0	0	1
RightLeg	0	0	0	0	0	0	1
RightFoot	0	0	0	0	0	0	1
RightToeBase	0	0	0	0	0	0	1
[Hips]
51	-3.683624029	1033.780273	19.7393589	-3.702349186	-5.151376724	-3.049775839	1.0
52	-3.703678846	1033.758667	19.81631279	-3.732325315	-5.150265694	-3.049986839	1.0
53	-3.723297358	1033.73645	19.89319038	-3.762485027	-5.148524284	-3.050318003	1.0
54	-3.743493557	1033.714111	19.97019958	-3.792736769	-5.145974636	-3.050721407	1.0
[Spine]
51	0	101.8159943	1.315000057	3.767147779	1.869167805	3.003384113	1.0
52	0	101.8159943	1.315000057	3.768966913	1.867594838	3.004980087	1.0
53	0	101.8159943	1.315000057	3.770748377	1.866067171	3.006599426	1.0
54	0	101.8159943	1.315000057	3.77247715	1.864613533	3.008234978	1.0
[Spine1]
51	0	100.8349991	-10.00800037	1.26891613	0.512555182	1.626267433	1.0
52	0	100.8349991	-10.00800037	1.268629789	0.5121458769	1.626739264	1.0
53	0	100.8349991	-10.00800037	1.268329382	0.5117567778	1.627207756	1.0
54	0	100.8349991	-10.00800037	1.268009663	0.5113993883	1.627673745	1.0
[Spine2]
51	0	91	-13.73399925	1.243737221	0.5354418755	1.6279006	1.0
52	0	91	-13.73399925	1.243457913	0.5350275636	1.628359318	1.0
53	0	91	-13.73399925	1.24316442	0.5346332788	1.628814578	1.0
54	0	91	-13.73399925	1.242851853	0.5342704654	1.629267335	1.0
[Neck]
51	0	166.7169952	-25.16200066	5.743037224	-0.2705314159	0.3333489895	1.0
52	0	166.7169952	-25.16200066	5.754657269	-0.2705316544	0.3317991495	1.0
53	0	166.7169952	-25.16200066	5.766175747	-0.2705447376	0.3303911686	1.0
54	0	166.7169952	-25.16200066	5.777547359	-0.2705799937	0.3291171789	1.0
[Head]
51	0	96.17900085	16.84999847	-8.48811245	0.7875390649	-0.2460540384	1.0
52	0	96.17900085	16.84999847	-8.49263382	0.7843014598	-0.2458404899	1.0
53	0	96.17900085	16.84999847	-8.497695923	0.7812225819	-0.2456470281	1.0
54	0	96.17900085	16.84999847	-8.503336906	0.7782667279	-0.2454729676	1.0
[LeftEye]
51	30.6760006	64.09500122	92.83599854	0	0	0	1.0
52	30.6760006	64.09500122	92.83599854	0	0	0	1.0
53	30.6760006	64.09500122	92.83599854	0	0	0	1.0
54	30.6760006	64.09500122	92.83599854	0	0	0	1.0
[RightEye]
51	-30.6760006	64.09500122	92.83499908	0	0	0	1.0
52	-30.6760006	64.09500122	92.83499908	0	0	0	1.0
53	-30.6760006	64.09500122	92.83499908	0	0	0	1.0
54	-30.6760006	64.09500122	92.83499908	0	0	0	1.0
[LeftShoulder]
51	45.70400238	109.4599991	-26.28000069	4.984539986	-16.87290382	-13.60233974	1.0
52	45.70400238	109.4599991	-26.28000069	4.983819485	-16.87111092	-13.5991869	1.0
53	45.70400238	109.4599991	-26.28000069	4.983096123	-16.86944199	-13.59597015	1.0
54	45.70400238	109.4599991	-26.28000069	4.982364178	-16.86783409	-13.59268475	1.0
[LeftArm]
51	105.923996	-5.24600029	-22.32099915	19.87503624	-3.665796757	-70.87345123	1.0
52	105.923996	-5.24600029	-22.32099915	19.86813164	-3.667226791	-70.87838745	1.0
53	105.923996	-5.24600029	-22.32099915	19.86141777	-3.668817997	-70.88350677	1.0
54	105.923996	-5.24600029	-22.32099915	19.85488319	-3.670572281	-70.8888092	1.0
[LeftForeArm]
51	278.414978	-0.0009999999311	0	-6.481435776e-06	-1.492096663	-0.0001988192089	1.0
52	278.414978	-0.0009999999311	0	-6.36153527e-06	-1.492527962	-0.0001963160903	1.0
53	278.414978	-0.0009999999311	0	-6.245916211e-06	-1.492834806	-0.0001937757042	1.0
54	278.414978	-0.0009999999311	0	-6.132999715e-06	-1.493048191	-0.0001912478474	1.0
[LeftHand]
51	283.2879944	0	0	-32.89814758	-4.607276917	-4.105422974	1.0
52	283.2879944	0	0	-32.89844894	-4.603547096	-4.110011101	1.0
53	283.2879944	0	0	-32.89864349	-4.599730015	-4.114489079	1.0
54	283.2879944	0	0	-32.89879608	-4.59586668	-4.118841648	1.0
[LeftHandThumb1]
51	24.6609993	-15.75	26.8239994	-0.4889889657	2.201390743	4.818541527	1.0
52	24.6609993	-15.75	26.8239994	-0.4889889657	2.201390743	4.818541527	1.0
53	24.6609993	-15.75	26.8239994	-0.4889889657	2.201390743	4.818541527	1.0
54	24.6609993	-15.75	26.8239994	-0.4889889657	2.201390743	4.818541527	1.0
[LeftHandThumb2]
51	32.29800034	-18.64699936	18.64699936	19.88581276	19.96446037	23.26738167	1.0
52	32.29800034	-18.64699936	18.64699936	19.88581276	19.96446037	23.26738167	1.0
53	32.29800034	-18.64699936	18.64699936	19.88581276	19.96446037	23.26738167	1.0
54	32.29800034	-18.64699936	18.64699936	19.88581276	19.96446037	23.26738167	1.0
[LeftHandThumb3]
51	26.52600098	-15.31499958	15.31499958	-13.14535904	5.551738262	7.967928886	1.0
52	26.52600098	-15.31499958	15.31499958	-13.14535904	5.551738262	7.967928886	1.0
53	26.52600098	-15.31499958	15.31499958	-13.14535904	5.551738262	7.967928886	1.0
54	26.52600098	-15.31499958	15.31499958	-13.14535904	5.551738262	7.967928886	1.0
[LeftHandThumb4]
51	19.54599953	-11.28499985	11.28499985	0	0	0	1.0
52	19.54599953	-11.28499985	11.28499985	0	0	0	1.0
53	19.54599953	-11.28499985	11.28499985	0	0	0	1.0
54	19.54599953	-11.28499985	11.28499985	0	0	0	1.0
[LeftHandIndex1]
51	91.09299469	-5.170999527	22.60099792	0.1480516791	-0.9618676901	-7.594518185	1.0
52	91.09299469	-5.170999527	22.60099792	0.1480516791	-0.9618676901	-7.594518185	1.0
53	91.09299469	-5.170999527	22.60099792	0.1480516791	-0.9618676901	-7.594518185	1.0
54	91.09299469	-5.170999527	22.60099792	0.1480516791	-0.9618676901	-7.594518185	1.0
[LeftHandIndex2]
51	36.76399994	0	0	-0.2667043209	1.745171905	-17.37646866	1.0
52	36.76399994	0	0	-0.2667043209	1.745171905	-17.37646866	1.0
53	36.76399994	0	0	-0.2667043209	1.745171905	-17.37646866	1.0
54	36.76399994	0	0	-0.2667043209	1.745171905	-17.37646866	1.0
[LeftHandIndex3]
51	28.83100128	0	0	-0.05742863193	0.817338407	-8.038370132	1.0
52	28.83100128	0	0	-0.05742863193	0.817338407	-8.038370132	1.0
53	28.83100128	0	0	-0.05742863193	0.817338407	-8.038370132	1.0
54	28.83100128	0	0	-0.05742863193	0.817338407	-8.038370132	1.0
[LeftHandIndex4]
51	23.92700005	0	0	0	0	0	1.0
52	23.92700005	0	0	0	0	0	1.0
53	23.92700005	0	0	0	0	0	1.0
54	23.92700005	0	0	0	0	0	1.0
[LeftHandMiddle1]
51	95.33399963	0	0	-0.7942916155	2.538622379	-15.71737862	1.0
52	95.33399963	0	0	-0.7942916155	2.538622379	-15.71737862	1.0
53	95.33399963	0	0	-0.7942916155	2.538622379	-15.71737862	1.0
54	95.33399963	0	0	-0.7942916155	2.538622379	-15.71737862	1.0
[LeftHandMiddle2]
51	36.98199844	0	0	-0.267610997	1.748071074	-17.40625954	1.0
52	36.98199844	0	0	-0.267610997	1.748071074	-17.40625954	1.0
53	36.98199844	0	0	-0.267610997	1.748071074	-17.40625954	1.0
54	36.98199844	0	0	-0.267610997	1.748071074	-17.40625954	1.0
[LeftHandMiddle3]
51	29.50900078	0	0	-0.2992140949	1.84580946	-18.41413307	1.0
52	29.50900078	0	0	-0.2992140949	1.84580946	-18.41413307	1.0
53	29.50900078	0	0	-0.2992140949	1.84580946	-18.41413307	1.0
54	29.50900078	0	0	-0.2992140949	1.84580946	-18.41413307	1.0
[LeftHandMiddle4]
51	28.3390007	0	0	0	0	0	1.0
52	28.3390007	0	0	0	0	0	1.0
53	28.3390007	0	0	0	0	0	1.0
54	28.3390007	0	0	0	0	0	1.0
[LeftHandRing1]
51	91.04499817	-0.4390000105	-18.65100098	-1.184956431	3.436642885	-21.16632462	1.0
52	91.04499817	-0.4390000105	-18.65100098	-1.184956431	3.436642885	-21.16632462	1.0
53	91.04499817	-0.4390000105	-18.65100098	-1.184956431	3.436642885	-21.16632462	1.0
54	91.04499817	-0.4390000105	-18.65100098	-1.184956431	3.436642885	-21.16632462	1.0
[LeftHandRing2]
51	31.54000092	0	0	-0.3849357069	2.085560799	-20.91281319	1.0
52	31.54000092	0	0	-0.3849357069	2.085560799	-20.91281319	1.0
53	31.54000092	0	0	-0.3849357069	2.085560799	-20.91281319	1.0
54	31.54000092	0	0	-0.3849357069	2.085560799	-20.91281319	1.0
[LeftHandRing3]
51	29.37700081	0	0	-0.2818065584	1.792707562	-17.86576271	1.0
52	29.37700081	0	0	-0.2818065584	1.792707562	-17.86576271	1.0
53	29.37700081	0	0	-0.2818065584	1.792707562	-17.86576271	1.0
54	29.37700081	0	0	-0.2818065584	1.792707562	-17.86576271	1.0
[LeftHandRing4]
51	26.47500038	0	0	0	0	0	1.0
52	26.47500038	0	0	0	0	0	1.0
53	26.47500038	0	0	0	0	0	1.0
54	26.47500038	0	0	0	0	0	1.0
[LeftHandPinky1]
51	80.77799988	-4.887000084	-38.06099701	-1.708467126	5.355370045	-27.1653862	1.0
52	80.77799988	-4.887000084	-38.06099701	-1.708467126	5.355370045	-27.1653862	1.0
53	80.77799988	-4.887000084	-38.06099701	-1.708467126	5.355370045	-27.1653862	1.0
54	80.77799988	-4.887000084	-38.06099701	-1.708467126	5.355370045	-27.1653862	1.0
[LeftHandPinky2]
51	36	0	0	-0.2676221728	1.748113751	-17.40663528	1.0
52	36	0	0	-0.2676221728	1.748113751	-17.40663528	1.0
53	36	0	0	-0.2676221728	1.748113751	-17.40663528	1.0
54	36	0	0	-0.2676221728	1.748113751	-17.40663528	1.0
[LeftHandPinky3]
51	21.14200211	0	0	-0.2408525199	1.660349369	-16.50663185	1.0
52	21.14200211	0	0	-0.2408525199	1.660349369	-16.50663185	1.0
53	21.14200211	0	0	-0.2408525199	1.660349369	-16.50663185	1.0
54	21.14200211	0	0	-0.2408525199	1.660349369	-16.50663185	1.0
[LeftHandPinky4]
51	19.75699997	0	0	0	0	0	1.0
52	19.75699997	0	0	0	0	0	1.0
53	19.75699997	0	0	0	0	0	1.0
54	19.75699997	0	0	0	0	0	1.0
[RightShoulder]
51	-45.70000076	109.4620056	-26.28000069	5.321401596	15.12764168	16.01000023	1.0
52	-45.70000076	109.4620056	-26.28000069	5.320978165	15.12099838	16.01129723	1.0
53	-45.70000076	109.4620056	-26.28000069	5.320590973	15.11433697	16.01281929	1.0
54	-45.70000076	109.4620056	-26.28000069	5.320231915	15.10769272	16.01449394	1.0
[RightArm]
51	-105.9280014	-5.248000145	-22.32099915	30.26569366	1.803875804	62.33459473	1.0
52	-105.9280014	-5.248000145	-22.32099915	30.25164986	1.793007016	62.33686447	1.0
53	-105.9280014	-5.248000145	-22.32099915	30.23747826	1.782100797	62.33890915	1.0
54	-105.9280014	-5.248000145	-22.32099915	30.22324753	1.771232367	62.34080505	1.0
[RightForeArm]
51	-278.414978	0	0	-3.567535487e-06	6.737698555	1.85986919e-05	1.0
52	-278.414978	0	0	-2.91715719e-06	6.736548901	2.039241372e-05	1.0
53	-278.414978	0	0	-2.262697308e-06	6.735160351	2.198042966e-05	1.0
54	-278.414978	0	0	-1.616302029e-06	6.73357296	2.333628436e-05	1.0
[RightHand]
51	-283.2879944	0	0.0009999999311	-20.39440346	1.552289844	6.107748985	1.0
52	-283.2879944	0	0.0009999999311	-20.3896389	1.545583606	6.103682518	1.0
53	-283.2879944	0	0.0009999999311	-20.38492584	1.539003372	6.099889278	1.0
54	-283.2879944	0	0.0009999999311	-20.38021278	1.532556891	6.096446991	1.0
[RightHandPinky1]
51	-80.76699829	-4.885000229	-38.06000137	-1.507175922	-4.696118355	26.50587463	1.0
52	-80.76699829	-4.885000229	-38.06000137	-1.507175922	-4.696118355	26.50587463	1.0
53	-80.76699829	-4.885000229	-38.06000137	-1.507175922	-4.696118355	26.50587463	1.0
54	-80.76699829	-4.885000229	-38.06000137	-1.507175922	-4.696118355	26.50587463	1.0
[RightHandPinky2]
51	-36	0	0.0009999999311	-0.2127676606	-1.388874292	17.43785858	1.0
52	-36	0	0.0009999999311	-0.2127676606	-1.388874292	17.43785858	1.0
53	-36	0	0.0009999999311	-0.2127676606	-1.388874292	17.43785858	1.0
54	-36	0	0.0009999999311	-0.2127676606	-1.388874292	17.43785858	1.0
[RightHandPinky3]
51	-21.14200211	0	0	-0.1919144988	-1.32059598	16.53641129	1.0
52	-21.14200211	0	0	-0.1919144988	-1.32059598	16.53641129	1.0
53	-21.14200211	0	0	-0.1919144988	-1.32059598	16.53641129	1.0
54	-21.14200211	0	0	-0.1919144988	-1.32059598	16.53641129	1.0
[RightHandPinky4]
51	-19.75699997	0	0	0	0	0	1.0
52	-19.75699997	0	0	0	0	0	1.0
53	-19.75699997	0	0	0	0	0	1.0
54	-19.75699997	0	0	0	0	0	1.0
[RightHandRing1]
51	-91.03599548	-0.4390000105	-18.65100098	-1.045235753	-2.883111477	20.47788429	1.0
52	-91.03599548	-0.4390000105	-18.65100098	-1.045235753	-2.883111477	20.47788429	1.0
53	-91.03599548	-0.4390000105	-18.65100098	-1.045235753	-2.883111477	20.47788429	1.0
54	-91.03599548	-0.4390000105	-18.65100098	-1.045235753	-2.883111477	20.47788429	1.0
[RightHandRing2]
51	-31.54000092	0	0	-0.3066971898	-1.658752441	20.94926834	1.0
52	-31.54000092	0	0	-0.3066971898	-1.658752441	20.94926834	1.0
53	-31.54000092	0	0	-0.3066971898	-1.658752441	20.94926834	1.0
54	-31.54000092	0	0	-0.3066971898	-1.658752441	20.94926834	1.0
[RightHandRing3]
51	-29.37700081	0	0	-0.2245407403	-1.425854325	17.89771652	1.0
52	-29.37700081	0	0	-0.2245407403	-1.425854325	17.89771652	1.0
53	-29.37700081	0	0	-0.2245407403	-1.425854325	17.89771652	1.0
54	-29.37700081	0	0	-0.2245407403	-1.425854325	17.89771652	1.0
[RightHandRing4]
51	-26.47500038	0	0	0	0	0	1.0
52	-26.47500038	0	0	0	0	0	1.0
53	-26.47500038	0	0	0	0	0	1.0
54	-26.47500038	0	0	0	0	0	1.0
[RightHandMiddle1]
51	-95.32500458	0	0	-0.7017197609	-2.087752104	15.0152874	1.0
52	-95.32500458	0	0	-0.7017197609	-2.087752104	15.0152874	1.0
53	-95.32500458	0	0	-0.7017197609	-2.087752104	15.0152874	1.0
54	-95.32500458	0	0	-0.7017197609	-2.087752104	15.0152874	1.0
[RightHandMiddle2]
51	-36.98199844	0	0	-0.213228479	-1.390354872	17.43750381	1.0
52	-36.98199844	0	0	-0.213228479	-1.390354872	17.43750381	1.0
53	-36.98199844	0	0	-0.213228479	-1.390354872	17.43750381	1.0
54	-36.98199844	0	0	-0.213228479	-1.390354872	17.43750381	1.0
[RightHandMiddle3]
51	-29.50900078	0	0	-0.2384106964	-1.470119596	18.44692802	1.0
52	-29.50900078	0	0	-0.2384106964	-1.470119596	18.44692802	1.0
53	-29.50900078	0	0	-0.2384106964	-1.470119596	18.44692802	1.0
54	-29.50900078	0	0	-0.2384106964	-1.470119596	18.44692802	1.0
[RightHandMiddle4]
51	-28.3390007	0	0.0009999999311	0	0	0	1.0
52	-28.3390007	0	0.0009999999311	0	0	0	1.0
53	-28.3390007	0	0.0009999999311	0	0	0	1.0
54	-28.3390007	0	0.0009999999311	0	0	0	1.0
[RightHandIndex1]
51	-91.08300018	-5.167999744	22.60099792	0.1884763837	1.25192976	6.825599194	1.0
52	-91.08300018	-5.167999744	22.60099792	0.1884763837	1.25192976	6.825599194	1.0
53	-91.08300018	-5.167999744	22.60099792	0.1884763837	1.25192976	6.825599194	1.0
54	-91.08300018	-5.167999744	22.60099792	0.1884763837	1.25192976	6.825599194	1.0
[RightHandIndex2]
51	-36.76399994	0	0	-0.2125098109	-1.388050556	17.40767097	1.0
52	-36.76399994	0	0	-0.2125098109	-1.388050556	17.40767097	1.0
53	-36.76399994	0	0	-0.2125098109	-1.388050556	17.40767097	1.0
54	-36.76399994	0	0	-0.2125098109	-1.388050556	17.40767097	1.0
[RightHandIndex3]
51	-28.83100128	0	0	-0.04576345533	-0.650116384	8.053516388	1.0
52	-28.83100128	0	0	-0.04576345533	-0.650116384	8.053516388	1.0
53	-28.83100128	0	0	-0.04576345533	-0.650116384	8.053516388	1.0
54	-28.83100128	0	0	-0.04576345533	-0.650116384	8.053516388	1.0
[RightHandIndex4]
51	-23.92700005	0	0	0	0	0	1.0
52	-23.92700005	0	0	0	0	0	1.0
53	-23.92700005	0	0	0	0	0	1.0
54	-23.92700005	0	0	0	0	0	1.0
[RightHandThumb1]
51	-24.64799881	-15.72700024	26.82600021	-1.658462524	-0.2891407609	-4.221328735	1.0
52	-24.64799881	-15.72700024	26.82600021	-1.658462524	-0.2891407609	-4.221328735	1.0
53	-24.64799881	-15.72700024	26.82600021	-1.658462524	-0.2891407609	-4.221328735	1.0
54	-24.64799881	-15.72700024	26.82600021	-1.658462524	-0.2891407609	-4.221328735	1.0
[RightHandThumb2]
51	-32.29800034	-18.64699936	18.64699936	22.25259209	-23.88967514	-24.282444	1.0
52	-32.29800034	-18.64699936	18.64699936	22.25259209	-23.88967514	-24.282444	1.0
53	-32.29800034	-18.64699936	18.64699936	22.25259209	-23.88967514	-24.282444	1.0
54	-32.29800034	-18.64699936	18.64699936	22.25259209	-23.88967514	-24.282444	1.0
[RightHandThumb3]
51	-26.52600098	-15.31399918	15.31399918	-14.47830296	-6.743862152	-11.36570263	1.0
52	-26.52600098	-15.31399918	15.31399918	-14.47830296	-6.743862152	-11.36570263	1.0
53	-26.52600098	-15.31399918	15.31399918	-14.47830296	-6.743862152	-11.36570263	1.0
54	-26.52600098	-15.31399918	15.31399918	-14.47830296	-6.743862152	-11.36570263	1.0
[RightHandThumb4]
51	-19.54599953	-11.28499985	11.28499985	0	0	0	1.0
52	-19.54599953	-11.28499985	11.28499985	0	0	0	1.0
53	-19.54599953	-11.28499985	11.28499985	0	0	0	1.0
54	-19.54599953	-11.28499985	11.28499985	0	0	0	1.0
[LeftUpLeg]
51	82.07800293	-67.51699829	-15.99599934	-7.665623188	16.42154694	7.743557453	1.0
52	82.07800293	-67.51699829	-15.99599934	-7.642704487	16.42961311	7.75454092	1.0
53	82.07800293	-67.51699829	-15.99599934	-7.619979382	16.43769646	7.765614033	1.0
54	82.07800293	-67.51699829	-15.99599934	-7.597466469	16.44575691	7.776731491	1.0
[LeftLeg]
51	0	-443.7049866	2.845999956	12.05992603	0.5864514112	4.426375866	1.0
52	0	-443.7049866	2.845999956	12.08885479	0.570407033	4.424535751	1.0
53	0	-443.7049866	2.845999956	12.11823845	0.5537114143	4.42252779	1.0
54	0	-443.7049866	2.845999956	12.14784145	0.5362553596	4.420332432	1.0
[LeftFoot]
51	0	-444.2789917	-29.8219986	1.171556115	0.6846609116	-7.269116402	1.0
52	0	-444.2789917	-29.8219986	1.150677919	0.6842593551	-7.269510746	1.0
53	0	-444.2789917	-29.8219986	1.129546881	0.6838482618	-7.269860744	1.0
54	0	-444.2789917	-29.8219986	1.108319283	0.683434546	-7.270198822	1.0
[LeftToeBase]
51	0	-87.28699493	107.1060028	-4.943567753	-1.114114639e-05	6.856647019e-07	1.0
52	0	-87.28699493	107.1060028	-4.941669941	-9.61765636e-06	1.772944245e-07	1.0
53	0	-87.28699493	107.1060028	-4.939691067	-8.026272553e-06	-3.407503186e-07	1.0
54	0	-87.28699493	107.1060028	-4.937645435	-6.393672265e-06	-8.56431825e-07	1.0
[RightUpLeg]
51	-82.07800293	-67.51699829	-15.99599934	0.3626770079	-10.57832432	3.261013985	1.0
52	-82.07800293	-67.51699829	-15.99599934	0.3877544999	-10.58400154	3.256393671	1.0
53	-82.07800293	-67.51699829	-15.99599934	0.4129447043	-10.58973789	3.251854181	1.0
54	-82.07800293	-67.51699829	-15.99599934	0.4382028282	-10.59553051	3.247422457	1.0
[RightLeg]
51	0	-443.7049866	2.861999989	8.624728203	-9.197447777	-4.725323677	1.0
52	0	-443.7049866	2.861999989	8.650198936	-9.194939613	-4.7320714	1.0
53	0	-443.7049866	2.861999989	8.67591095	-9.19243145	-4.738835812	1.0
54	0	-443.7049866	2.861999989	8.7018013	-9.189939499	-4.745590687	1.0
[RightFoot]
51	0	-444.2770081	-29.83799934	-4.552936077	-1.542945623	3.299886227	1.0
52	0	-444.2770081	-29.83799934	-4.572499752	-1.542545795	3.305461884	1.0
53	0	-444.2770081	-29.83799934	-4.59224987	-1.542724609	3.311107159	1.0
54	0	-444.2770081	-29.83799934	-4.612209797	-1.54363513	3.316767693	1.0
[RightToeBase]
51	0	-87.28699493	107.1060028	-7.23731041	1.139760388e-05	2.671912682e-07	1.0
52	0	-87.28699493	107.1060028	-7.235316753	1.179392348e-05	-2.100703789e-08	1.0
53	0	-87.28699493	107.1060028	-7.233343124	1.207203968e-05	-3.134299789e-07	1.0
54	0	-87.28699493	107.1060028	-7.231448174	1.2240248e-05	-6.041516372e-07	1.0
[EndOfFile]
